<?xml version="1.0" standalone="no"?>
<!DOCTYPE svg PUBLIC "-//W3C//DTD SVG 20010904//EN"
 "http://www.w3.org/TR/2001/REC-SVG-20010904/DTD/svg10.dtd">
<svg version="1.0" xmlns="http://www.w3.org/2000/svg"
 width="400.000000pt" height="400.000000pt" viewBox="0 0 400.000000 400.000000"
 preserveAspectRatio="xMidYMid meet">
<metadata>
Created by potrace 1.16, written by Peter Selinger 2001-2019
</metadata>
<g transform="translate(0.000000,400.000000) scale(0.100000,-0.100000)"
fill="#000000" stroke="none">
<path d="M1070 2611 c-6 -13 -10 -236 -10 -655 0 -564 2 -636 16 -650 14 -14
110 -16 908 -16 852 0 894 1 909 18 15 17 17 77 17 655 0 564 -2 637 -16 651
-14 14 -110 16 -914 16 -879 0 -900 0 -910 -19z m1760 -651 l0 -580 -842 0
-843 0 3 580 2 580 840 0 840 0 0 -580z"/>
<path d="M1313 2421 c-112 -52 -112 -206 0 -264 49 -25 92 -17 142 26 34 29
38 39 42 88 5 65 -17 115 -62 140 -49 28 -77 31 -122 10z"/>
<path d="M2123 2212 c-17 -17 -57 -71 -253 -349 -52 -73 -96 -133 -99 -133 -3
0 -35 42 -71 93 -92 130 -135 140 -202 45 -20 -29 -96 -136 -169 -238 -72
-102 -134 -193 -137 -202 -4 -17 39 -18 793 -18 698 0 796 2 791 15 -5 15
-136 202 -316 455 -57 80 -130 183 -163 230 -33 47 -70 93 -81 102 -27 23 -71
23 -93 0z"/>
</g>
</svg>
